HIERARCHY
ROOT Hips
{
	OFFSET 0.000000 83.214638 0.000000
	CHANNELS 6 Xposition Yposition Zposition Xrotation Yrotation Zrotation
	JOINT Pelvis
	{
		OFFSET 0.000000 0.000000 0.000000
		CHANNELS 3 Xrotation Yrotation Zrotation
		JOINT LeftUpLeg
		{
			OFFSET 8.479700 -4.795502 -0.379100
			CHANNELS 3 Xrotation Yrotation Zrotation
			JOINT LeftLeg
			{
				OFFSET 0.024144 -32.555107 0.112900
				CHANNELS 3 Xrotation Yrotation Zrotation
				JOINT LeftFoot
				{
					OFFSET -0.024144 -32.638630 -3.012600
					CHANNELS 3 Xrotation Yrotation Zrotation
					JOINT LeftToeBase
					{
						OFFSET 0.970200 -13.225400 11.864200
						CHANNELS 3 Xrotation Yrotation Zrotation
						End Site
						{
							OFFSET 0.000000 12.319262 0.000000
						}
					}
					JOINT LFootTongue
					{
						OFFSET 1.142400 -1.059800 6.665200
						CHANNELS 3 Xrotation Yrotation Zrotation
						End Site
						{
							OFFSET 0.000000 12.319262 0.000000
						}
					}
				}
				JOINT LeftPantLeg
				{
					OFFSET 0.918482 -16.533964 -2.284700
					CHANNELS 3 Xrotation Yrotation Zrotation
					End Site
					{
						OFFSET 0.350399 24.744368 0.000000
					}
				}
			}
		}
		JOINT RightUpLeg
		{
			OFFSET -8.479700 -4.795502 -0.379100
			CHANNELS 3 Xrotation Yrotation Zrotation
			JOINT RightLeg
			{
				OFFSET -0.023144 -32.555092 0.112900
				CHANNELS 3 Xrotation Yrotation Zrotation
				JOINT RightFoot
				{
					OFFSET 0.023144 -32.638641 -3.012700
					CHANNELS 3 Xrotation Yrotation Zrotation
					JOINT RightToeBase
					{
						OFFSET -0.970200 -13.225400 11.864200
						CHANNELS 3 Xrotation Yrotation Zrotation
						End Site
						{
							OFFSET 0.000000 12.319244 0.000000
						}
					}
					JOINT RFootTongue
					{
						OFFSET -1.142200 -1.059800 6.665200
						CHANNELS 3 Xrotation Yrotation Zrotation
						End Site
						{
							OFFSET 0.000000 12.319243 0.000000
						}
					}
				}
				JOINT RightPantLeg
				{
					OFFSET -0.919482 -16.533978 -2.284800
					CHANNELS 3 Xrotation Yrotation Zrotation
					End Site
					{
						OFFSET -0.350400 24.744419 0.000000
					}
				}
			}
		}
	}
	JOINT Spine
	{
		OFFSET 0.000000 7.722000 1.166200
		CHANNELS 3 Xrotation Yrotation Zrotation
		JOINT Spine1
		{
			OFFSET 0.000000 12.024101 0.248800
			CHANNELS 3 Xrotation Yrotation Zrotation
			JOINT Spine2
			{
				OFFSET 0.000000 11.502998 -0.491200
				CHANNELS 3 Xrotation Yrotation Zrotation
				JOINT Neck
				{
					OFFSET 0.000000 18.430702 -3.123100
					CHANNELS 3 Xrotation Yrotation Zrotation
					JOINT Head
					{
						OFFSET 0.000000 9.051102 1.034000
						CHANNELS 3 Xrotation Yrotation Zrotation
						JOINT HairB
						{
							OFFSET 0.208400 24.786102 24.822300
							CHANNELS 3 Xrotation Yrotation Zrotation
							End Site
							{
								OFFSET 0.000000 32.263779 0.000000
							}
						}
						JOINT HairA
						{
							OFFSET -7.081100 24.428299 23.196600
							CHANNELS 3 Xrotation Yrotation Zrotation
							End Site
							{
								OFFSET 0.000000 32.263779 0.000000
							}
						}
						JOINT Hat
						{
							OFFSET 16.728800 15.048294 -15.439601
							CHANNELS 3 Xrotation Yrotation Zrotation
							End Site
							{
								OFFSET 0.000000 32.263779 0.000000
							}
						}
					}
				}
				JOINT LeftShoulder
				{
					OFFSET 6.197800 13.665199 -4.064700
					CHANNELS 3 Xrotation Yrotation Zrotation
					JOINT LeftArm
					{
						OFFSET 7.778100 -0.187103 -1.709300
						CHANNELS 3 Xrotation Yrotation Zrotation
						JOINT LeftForeArm
						{
							OFFSET 22.049376 0.000000 0.000000
							CHANNELS 3 Xrotation Yrotation Zrotation
							JOINT LeftHand
							{
								OFFSET 23.009392 0.000000 0.000000
								CHANNELS 3 Xrotation Yrotation Zrotation
								JOINT LeftHandThumb1
								{
									OFFSET 3.507191 -2.063065 3.133727
									CHANNELS 3 Xrotation Yrotation Zrotation
									JOINT LeftHandThumb2
									{
										OFFSET 3.101337 -1.790558 1.790558
										CHANNELS 3 Xrotation Yrotation Zrotation
										JOINT LeftHandThumb3
										{
											OFFSET 3.058640 -1.765907 1.765906
											CHANNELS 3 Xrotation Yrotation Zrotation
											End Site
											{
												OFFSET -0.415260 3.926476 -0.049563
											}
										}
									}
								}
								JOINT LeftHandIndex1
								{
									OFFSET 11.334419 -0.901459 3.706815
									CHANNELS 3 Xrotation Yrotation Zrotation
									JOINT LeftHandIndex2
									{
										OFFSET 3.283112 0.000000 0.000000
										CHANNELS 3 Xrotation Yrotation Zrotation
										JOINT LeftHandIndex3
										{
											OFFSET 3.323853 0.000000 0.000000
											CHANNELS 3 Xrotation Yrotation Zrotation
											End Site
											{
												OFFSET -1.135597 3.097809 0.402452
											}
										}
									}
								}
								JOINT LeftHandMiddle1
								{
									OFFSET 11.335861 0.000000 0.000000
									CHANNELS 3 Xrotation Yrotation Zrotation
									JOINT LeftHandMiddle2
									{
										OFFSET 3.410492 0.000000 0.000000
										CHANNELS 3 Xrotation Yrotation Zrotation
										JOINT LeftHandMiddle3
										{
											OFFSET 3.312172 0.000000 0.000000
											CHANNELS 3 Xrotation Yrotation Zrotation
											End Site
											{
												OFFSET -1.150200 3.080154 0.400270
											}
										}
									}
								}
								JOINT LeftHandRing1
								{
									OFFSET 11.514786 -0.013176 -3.003090
									CHANNELS 3 Xrotation Yrotation Zrotation
									JOINT LeftHandRing2
									{
										OFFSET 3.053307 0.000000 0.000000
										CHANNELS 3 Xrotation Yrotation Zrotation
										JOINT LeftHandRing3
										{
											OFFSET 3.295807 0.000000 0.000000
											CHANNELS 3 Xrotation Yrotation Zrotation
											End Site
											{
												OFFSET -1.281006 3.013344 0.375733
											}
										}
									}
								}
								JOINT LeftHandPinky1
								{
									OFFSET 10.518692 -0.960396 -5.730441
									CHANNELS 3 Xrotation Yrotation Zrotation
									JOINT LeftHandPinky2
									{
										OFFSET 2.861649 0.000000 0.000000
										CHANNELS 3 Xrotation Yrotation Zrotation
										JOINT LeftHandPinky3
										{
											OFFSET 2.863380 0.000000 0.000000
											CHANNELS 3 Xrotation Yrotation Zrotation
											End Site
											{
												OFFSET -0.843597 2.711159 0.369971
											}
										}
									}
								}
							}
							JOINT LSleeve
							{
								OFFSET 6.676277 -0.344902 -1.011730
								CHANNELS 3 Xrotation Yrotation Zrotation
								End Site
								{
									OFFSET 0.000000 14.885353 0.000000
								}
							}
						}
					}
				}
				JOINT RightShoulder
				{
					OFFSET -6.197800 13.665199 -4.064700
					CHANNELS 3 Xrotation Yrotation Zrotation
					JOINT RightArm
					{
						OFFSET -7.778100 -0.187103 -1.709300
						CHANNELS 3 Xrotation Yrotation Zrotation
						JOINT RightForeArm
						{
							OFFSET -22.049376 0.000000 0.000000
							CHANNELS 3 Xrotation Yrotation Zrotation
							JOINT RightHand
							{
								OFFSET -23.009392 0.000000 0.000000
								CHANNELS 3 Xrotation Yrotation Zrotation
								JOINT RightHandThumb1
								{
									OFFSET -3.507191 -2.063065 3.133727
									CHANNELS 3 Xrotation Yrotation Zrotation
									JOINT RightHandThumb2
									{
										OFFSET -3.101337 -1.790558 1.790558
										CHANNELS 3 Xrotation Yrotation Zrotation
										JOINT RightHandThumb3
										{
											OFFSET -3.058640 -1.765907 1.765906
											CHANNELS 3 Xrotation Yrotation Zrotation
											End Site
											{
												OFFSET 0.415260 3.926476 -0.049563
											}
										}
									}
								}
								JOINT RightHandIndex1
								{
									OFFSET -11.334419 -0.901459 3.706815
									CHANNELS 3 Xrotation Yrotation Zrotation
									JOINT RightHandIndex2
									{
										OFFSET -3.283112 0.000000 0.000000
										CHANNELS 3 Xrotation Yrotation Zrotation
										JOINT RightHandIndex3
										{
											OFFSET -3.323853 0.000000 0.000000
											CHANNELS 3 Xrotation Yrotation Zrotation
											End Site
											{
												OFFSET 1.135597 3.097809 0.402452
											}
										}
									}
								}
								JOINT RightHandMiddle1
								{
									OFFSET -11.335861 0.000000 0.000000
									CHANNELS 3 Xrotation Yrotation Zrotation
									JOINT RightHandMiddle2
									{
										OFFSET -3.410492 0.000000 0.000000
										CHANNELS 3 Xrotation Yrotation Zrotation
										JOINT RightHandMiddle3
										{
											OFFSET -3.312172 0.000000 0.000000
											CHANNELS 3 Xrotation Yrotation Zrotation
											End Site
											{
												OFFSET 1.150200 3.080154 0.400270
											}
										}
									}
								}
								JOINT RightHandRing1
								{
									OFFSET -11.514786 -0.013176 -3.003090
									CHANNELS 3 Xrotation Yrotation Zrotation
									JOINT RightHandRing2
									{
										OFFSET -3.053307 0.000000 0.000000
										CHANNELS 3 Xrotation Yrotation Zrotation
										JOINT RightHandRing3
										{
											OFFSET -3.295807 0.000000 0.000000
											CHANNELS 3 Xrotation Yrotation Zrotation
											End Site
											{
												OFFSET 1.281006 3.013344 0.375733
											}
										}
									}
								}
								JOINT RightHandPinky1
								{
									OFFSET -10.518692 -0.960396 -5.730441
									CHANNELS 3 Xrotation Yrotation Zrotation
									JOINT RightHandPinky2
									{
										OFFSET -2.861649 0.000000 0.000000
										CHANNELS 3 Xrotation Yrotation Zrotation
										JOINT RightHandPinky3
										{
											OFFSET -2.863380 0.000000 0.000000
											CHANNELS 3 Xrotation Yrotation Zrotation
											End Site
											{
												OFFSET 0.843597 2.711159 0.369971
											}
										}
									}
								}
							}
							JOINT RSleeve
							{
								OFFSET -6.676277 -0.344902 -1.011730
								CHANNELS 3 Xrotation Yrotation Zrotation
								End Site
								{
									OFFSET 0.000000 14.885353 0.000000
								}
							}
						}
					}
				}
				JOINT Backpack
				{
					OFFSET 0.000000 -2.471497 36.677502
					CHANNELS 3 Xrotation Yrotation Zrotation
					End Site
					{
						OFFSET 0.000000 20.427315 0.000000
					}
				}
				JOINT Hood
				{
					OFFSET 0.000000 18.754097 -10.431000
					CHANNELS 3 Xrotation Yrotation Zrotation
					JOINT Hood1
					{
						OFFSET 0.000000 -5.011002 -7.685901
						CHANNELS 3 Xrotation Yrotation Zrotation
						End Site
						{
							OFFSET 0.000000 9.175140 0.000000
						}
					}
				}
				JOINT LHoodieString
				{
					OFFSET 5.250500 16.397697 3.089900
					CHANNELS 3 Xrotation Yrotation Zrotation
					JOINT LHoodieString1
					{
						OFFSET 0.257700 -6.364304 3.694600
						CHANNELS 3 Xrotation Yrotation Zrotation
						JOINT LHoodieString2
						{
							OFFSET 0.000000 -9.643799 2.679100
							CHANNELS 3 Xrotation Yrotation Zrotation
							End Site
							{
								OFFSET 0.000000 10.009018 0.000000
							}
						}
					}
				}
				JOINT RHoodieString
				{
					OFFSET -5.250500 16.397697 3.089900
					CHANNELS 3 Xrotation Yrotation Zrotation
					JOINT RHoodieString1
					{
						OFFSET -0.257700 -6.364304 3.694600
						CHANNELS 3 Xrotation Yrotation Zrotation
						JOINT RHoodieString2
						{
							OFFSET 0.000000 -9.643799 2.679100
							CHANNELS 3 Xrotation Yrotation Zrotation
							End Site
							{
								OFFSET 0.000000 10.009018 0.000000
							}
						}
					}
				}
			}
			JOINT LBackpack_Strap
			{
				OFFSET 15.223200 -7.719803 -6.610900
				CHANNELS 3 Xrotation Yrotation Zrotation
				End Site
				{
					OFFSET 0.000000 16.040596 0.000000
				}
			}
			JOINT RBackpack_Strap
			{
				OFFSET -15.223000 -7.719803 -6.610900
				CHANNELS 3 Xrotation Yrotation Zrotation
				End Site
				{
					OFFSET 0.000000 16.040596 0.000000
				}
			}
		}
	}
	JOINT BoyFacialAnim_Joint
	{
		OFFSET 1.000000 -82.208099 -1.550900
		CHANNELS 3 Xrotation Yrotation Zrotation
		End Site
		{
			OFFSET 0.000000 30.012791 0.000000
		}
	}
}
MOTION
Frames: 4
Frame Time: 0.033333
-0.097783 90.765610 -2.657431 -22.331940 -5.463756 -1.630764 0.000000 0.000000 0.000000 -91.310224 8.764268 31.873419 123.231953 -20.532310 0.202005 -30.844243 -4.184576 12.986179 -0.000002 0.000000 -0.000000 -0.000002 0.000000 -0.000000 -0.000001 0.000000 0.000001 -108.743380 -5.743872 -37.312931 128.201257 24.399630 -1.726532 -24.531857 0.118766 -1.088663 0.000000 -0.000001 0.000001 0.000000 -0.000001 0.000001 -0.000000 -0.000000 -0.000001 7.363490 -1.067462 -0.571606 14.730500 -1.692556 -0.635908 14.730491 -1.692552 -0.635907 -13.399727 1.983140 2.689629 -19.330043 1.782313 0.666045 -0.000001 0.000000 -0.000000 -0.000001 0.000000 -0.000000 -0.000001 0.000000 -0.000000 1.776246 -3.108059 37.301306 -51.216716 -23.494384 -10.163152 -14.848169 -28.391392 2.021255 11.703480 -1.987735 43.553616 -11.216449 -9.381605 28.473600 19.441326 23.292002 -9.933078 0.000000 0.000001 -0.000001 -7.740135 -3.521063 -66.363942 -4.892264 2.722641 -36.143572 0.000000 -0.000001 -0.000002 -10.057001 -3.928076 -66.880563 -1.775534 1.703908 -28.277024 0.000001 -0.000001 -0.000000 -15.160928 7.139405 -69.402044 7.764467 -0.418515 -31.504388 0.000000 0.000000 -0.000000 -16.448658 5.331699 -74.335660 8.341030 -0.179429 -18.834790 -0.000000 0.000001 -0.000000 -0.000000 0.000000 -0.000001 11.794675 25.336657 -37.885622 -45.781344 22.216865 -6.117564 -22.085367 26.523918 2.984972 0.515573 10.296694 -45.168290 11.968023 -1.721956 -10.385200 -9.580184 -3.235394 -8.045804 -0.000000 0.000001 -0.000002 1.040409 3.388489 63.496574 1.753410 9.568334 38.855153 -0.000000 -0.000001 0.000002 -6.598400 -3.910662 63.687949 9.404976 5.990491 38.234863 0.000001 0.000001 0.000002 -5.382801 1.328490 64.102575 0.225749 -1.795439 39.133244 0.000001 -0.000001 0.000000 -17.880100 -16.486634 60.338212 25.330639 3.865422 27.746897 0.000003 0.000000 0.000000 -0.000000 0.000000 -0.000002 -0.000000 -0.000001 0.000000 -0.000000 -0.000001 0.000000 -0.000000 -0.000001 0.000000 -0.000000 -0.000001 0.000000 -0.000000 -0.000001 0.000000 -0.000000 -0.000000 -0.000000 -0.000000 -0.000001 0.000000 -0.000000 -0.000001 0.000000 -0.000000 -0.000000 -0.000000 -0.000000 -0.000000 -0.000000 -0.000000 -0.000000 -0.000000 0.000000 0.000000 0.000000 
-0.088082 90.755173 -2.667736 -22.350443 -5.486225 -1.639893 0.000002 0.000000 0.000000 -91.350898 8.734357 31.840204 123.246829 -20.471716 0.204848 -30.716088 -4.172506 12.983750 0.000001 0.000000 -0.000001 0.000001 0.000000 -0.000001 0.000000 0.000000 -0.000000 -108.769827 -5.748117 -37.256899 128.166683 24.275312 -1.709309 -24.433217 0.127886 -1.107876 -0.000003 0.000000 0.000000 -0.000003 0.000000 0.000000 0.000000 -0.000000 0.000001 7.376625 -1.067144 -0.571113 14.756716 -1.692776 -0.637659 14.756723 -1.692777 -0.637660 -13.218612 1.928687 2.726384 -19.631746 1.962841 0.666227 0.000000 -0.000000 0.000000 0.000000 -0.000000 0.000000 0.000000 -0.000000 0.000000 1.609928 -2.981962 37.354977 -51.219268 -23.597395 -10.255719 -14.817921 -28.258221 1.901711 11.614765 -2.028679 43.673094 -11.218515 -9.308621 28.486706 19.465771 23.276692 -9.930107 -0.000001 -0.000001 -0.000001 -7.744555 -3.509786 -66.282355 -4.892292 2.722628 -36.141482 0.000000 -0.000001 -0.000004 -10.053551 -3.945189 -66.740859 -1.775480 1.703995 -28.275730 0.000002 0.000000 -0.000001 -15.160684 7.137647 -69.392277 7.764679 -0.418426 -31.496922 -0.000000 0.000001 -0.000000 -16.446689 5.339872 -74.358227 8.339598 -0.184106 -18.876708 -0.000001 -0.000001 -0.000000 -0.000000 0.000000 -0.000001 11.558877 25.356483 -37.811183 -45.771416 22.397930 -6.014040 -22.052229 26.343459 3.005726 0.591684 10.379958 -45.181712 11.877865 -1.806481 -10.391200 -9.559177 -3.232131 -7.992201 0.000000 0.000001 -0.000004 1.043079 3.384335 63.440225 1.757464 9.552367 38.725110 -0.000001 0.000000 0.000000 -6.599088 -3.906758 63.679807 9.404692 5.991391 38.238220 0.000002 0.000001 -0.000000 -5.378857 1.329195 64.074278 0.227241 -1.798852 39.095928 -0.000000 -0.000000 0.000000 -17.901417 -16.463917 60.298105 25.330653 3.865447 27.746882 0.000001 0.000000 -0.000001 0.000001 0.000001 -0.000005 0.000001 0.000000 -0.000000 0.000001 0.000000 -0.000000 0.000001 0.000000 -0.000000 0.000001 0.000000 -0.000000 0.000001 0.000000 -0.000000 -0.000001 0.000000 -0.000000 0.000001 0.000000 -0.000000 0.000001 0.000000 -0.000000 -0.000001 0.000000 -0.000000 -0.000000 0.000000 -0.000000 -0.000000 0.000000 -0.000000 0.000002 0.000000 0.000000 
-0.078114 90.744499 -2.677477 -22.355916 -5.489174 -1.643091 0.000002 0.000000 0.000000 -91.380356 8.699353 31.783090 123.270667 -20.467516 0.204347 -30.631069 -4.171116 12.995911 -0.000000 0.000000 -0.000001 -0.000000 0.000000 -0.000000 0.000001 0.000000 0.000002 -108.782695 -5.737128 -37.207018 128.153788 24.180576 -1.695843 -24.400436 0.137897 -1.126842 -0.000002 -0.000001 -0.000001 -0.000002 -0.000001 -0.000001 -0.000000 0.000000 0.000000 7.388769 -1.066970 -0.570921 14.780978 -1.692871 -0.638676 14.780975 -1.692873 -0.638676 -13.038858 1.840069 2.739643 -19.906754 2.063528 0.666557 -0.000000 -0.000000 -0.000000 -0.000000 -0.000000 -0.000000 -0.000000 -0.000000 -0.000000 1.502322 -2.917788 37.430813 -51.179383 -23.592281 -10.301150 -14.813495 -28.251580 1.848634 11.526864 -2.021656 43.727458 -11.157667 -9.449799 28.449725 19.388540 23.307606 -9.914072 -0.000000 0.000001 -0.000001 -7.759287 -3.497849 -66.436212 -4.892320 2.722572 -36.138135 -0.000001 0.000000 -0.000002 -10.065156 -3.957018 -66.853707 -1.776853 1.701446 -28.311091 -0.000001 0.000000 -0.000003 -15.162322 7.153619 -69.473645 7.762023 -0.422971 -31.554559 0.000001 0.000003 -0.000000 -16.444036 5.372083 -74.476779 8.340380 -0.185180 -18.882386 0.000003 0.000000 -0.000000 0.000000 0.000000 -0.000001 11.483548 25.154759 -37.795374 -45.872531 22.581331 -5.884051 -22.104640 26.227686 2.951820 0.614433 10.441924 -45.169250 11.738083 -1.944936 -10.399362 -9.529097 -3.230668 -7.927285 -0.000000 0.000001 -0.000002 1.050611 3.374748 63.356555 1.719396 9.575366 38.857991 -0.000001 -0.000002 -0.000000 -6.598537 -3.905188 63.630657 9.404684 5.991503 38.237568 -0.000000 0.000001 -0.000000 -5.359590 1.327619 63.969632 0.223644 -1.795916 39.133630 0.000002 0.000001 0.000001 -17.907291 -16.452879 60.261878 25.330648 3.865431 27.746899 0.000002 0.000002 0.000001 -0.000000 -0.000000 -0.000003 0.000000 0.000001 -0.000000 0.000000 0.000001 -0.000000 0.000000 0.000001 -0.000000 0.000000 0.000001 -0.000000 0.000000 0.000001 -0.000000 0.000000 -0.000000 -0.000000 0.000000 0.000001 -0.000000 0.000000 0.000001 -0.000000 0.000000 -0.000000 -0.000000 -0.000000 0.000000 0.000000 -0.000000 0.000000 0.000000 0.000002 0.000000 0.000000 
-0.071447 90.731323 -2.684334 -22.358865 -5.484962 -1.645940 -0.000003 -0.000001 -0.000000 -91.440244 8.664922 31.734777 123.311265 -20.454187 0.203908 -30.486297 -4.177686 13.022573 0.000001 0.000000 -0.000000 0.000001 0.000000 0.000000 -0.000000 0.000000 0.000001 -108.801608 -5.702570 -37.173728 128.161328 24.111659 -1.685803 -24.373052 0.123551 -1.092695 -0.000001 0.000001 -0.000002 -0.000001 0.000001 -0.000002 0.000000 0.000001 0.000001 7.403225 -1.066647 -0.570294 14.809887 -1.692855 -0.638812 14.809897 -1.692854 -0.638813 -12.869325 1.752582 2.737857 -20.117509 2.077835 0.667522 -0.000002 0.000000 0.000000 -0.000002 0.000000 0.000000 -0.000002 0.000000 0.000000 1.424740 -2.865030 37.518625 -51.167942 -23.528205 -10.366458 -14.837254 -28.316387 1.859037 11.486311 -1.999409 43.721120 -11.148005 -9.495811 28.443020 19.406130 23.344712 -9.942694 0.000000 0.000001 0.000002 -7.763629 -3.492100 -66.472289 -4.892362 2.722531 -36.134460 0.000001 -0.000001 -0.000000 -10.072146 -3.964030 -66.925609 -1.775630 1.703733 -28.279731 0.000002 -0.000000 -0.000002 -15.163585 7.166220 -69.537596 7.762895 -0.421717 -31.533918 0.000002 -0.000002 -0.000001 -16.442630 5.385823 -74.535969 8.338884 -0.179913 -18.846092 -0.000000 0.000001 -0.000000 0.000000 0.000000 0.000001 11.295567 25.017605 -37.759635 -45.945422 22.728843 -5.716105 -22.115603 26.149658 2.941193 0.656148 10.482968 -45.171835 11.307944 -2.217699 -10.424736 -9.409355 -3.237467 -7.653038 0.000001 0.000001 -0.000003 1.055456 3.371375 63.333612 1.711045 9.577050 38.862352 -0.000002 0.000000 0.000002 -6.598593 -3.904261 63.591971 9.405019 5.990516 38.232694 0.000004 0.000001 0.000000 -5.350498 1.326445 63.922292 0.222497 -1.795825 39.137483 -0.000000 0.000001 0.000000 -17.910361 -16.441963 60.209887 25.330643 3.865442 27.746896 0.000002 -0.000000 0.000002 0.000000 -0.000000 0.000001 0.000000 0.000001 -0.000000 0.000000 0.000001 -0.000000 0.000000 0.000001 -0.000000 0.000000 0.000001 -0.000000 0.000000 0.000001 -0.000000 0.000000 -0.000000 0.000000 0.000000 0.000001 -0.000000 0.000000 0.000001 -0.000000 0.000000 -0.000000 0.000000 0.000000 0.000001 0.000000 0.000000 0.000001 0.000000 -0.000003 -0.000001 -0.000000 
